<!--?xml version="1.0" encoding="utf-8"?-->
<!-- Generator: Adobe Illustrator 21.0.2, SVG Export Plug-In . SVG Version: 6.00 Build 0)  -->
<svg version="1.1" id="Layer_1" xmlns="http://www.w3.org/2000/svg" xmlns:xlink="http://www.w3.org/1999/xlink" x="0px" y="0px" viewBox="0 0 595.3 841.9" style="" xml:space="preserve">
<style type="text/css">
	.st0{fill:none;stroke:#FFC115;stroke-miterlimit:10;}
	.st1{fill:none;stroke:#231F20;stroke-miterlimit:10;}
</style>
<path class="st0 WrXdRIAW_0" d="M228.1,582.5V409.3c0-38.5,18.8-61.3,50.7-61.3c32.2,0,51.3,22.8,51.3,61.3v173.2h100.7V398
	c0-44.4,9.7-85.4,28.5-122l9.1-17.8l-20.3,0.3"></path>
<path class="st0 WrXdRIAW_1" d="M448.3,258.5c-53.8,0.6-110.4,0.9-169.5,0.9c-84.7,0-151,61-151,138.5v184.5h100.7"></path>
<path class="st1 WrXdRIAW_2" d="M242.7,402.7A36,36 0,1,1 314.7,402.7A36,36 0,1,1 242.7,402.7"></path>
<style>.WrXdRIAW_0{stroke-dasharray:979 981;stroke-dashoffset:980;animation:WrXdRIAW_draw_0 7200ms ease-in-out 0ms infinite,WrXdRIAW_fade 7200ms linear 0ms infinite;}.WrXdRIAW_1{stroke-dasharray:683 685;stroke-dashoffset:684;animation:WrXdRIAW_draw_1 7200ms ease-in-out 0ms infinite,WrXdRIAW_fade 7200ms linear 0ms infinite;}.WrXdRIAW_2{stroke-dasharray:227 229;stroke-dashoffset:228;animation:WrXdRIAW_draw_2 7200ms ease-in-out 0ms infinite,WrXdRIAW_fade 7200ms linear 0ms infinite;}@keyframes WrXdRIAW_draw{100%{stroke-dashoffset:0;}}@keyframes WrXdRIAW_fade{0%{stroke-opacity:1;}94.44444444444444%{stroke-opacity:1;}100%{stroke-opacity:0;}}@keyframes WrXdRIAW_draw_0{11.11111111111111%{stroke-dashoffset: 980}38.88888888888889%{ stroke-dashoffset: 0;}100%{ stroke-dashoffset: 0;}}@keyframes WrXdRIAW_draw_1{18.055555555555554%{stroke-dashoffset: 684}45.83333333333333%{ stroke-dashoffset: 0;}100%{ stroke-dashoffset: 0;}}@keyframes WrXdRIAW_draw_2{25%{stroke-dashoffset: 228}52.77777777777778%{ stroke-dashoffset: 0;}100%{ stroke-dashoffset: 0;}}</style></svg>
